<svg id="Capa_1" enable-background="new 0 0 512 512" height="512" viewBox="0 0 512 512" width="512" xmlns="http://www.w3.org/2000/svg"><g><g><path d="m407.3 340.91c-.06-.03-.11-.05-.17-.08 5.47-6.84 8.87-15.39 8.87-24.83 0-14.77-8.09-27.52-20-34.45v-140.81c0-72.21-58.53-130.74-130.74-130.74h-18.52c-72.21 0-130.74 58.53-130.74 130.74v140.81c-11.91 6.93-20 19.68-20 34.45 0 9.44 3.4 17.99 8.87 24.83-.06.03-.11.05-.17.08-16.92 8.02-28.7 25.13-28.7 45.09 0 2.06.12 4.07.37 6.07h359.26c.25-2 .37-4.01.37-6.07 0-19.96-11.78-37.07-28.7-45.09z" fill="#8690a6"/><path d="m435.63 392.08v-.01c-6.738-1.739-3.785-.788-86.96-10.21h-185.34c-83.036 9.406-80.219 8.47-86.96 10.21v.01c-23.46 6.09-40.37 27.37-40.37 52.24v57.68h440v-57.68c0-24.87-16.91-46.15-40.37-52.24z" fill="#ff7b79"/><path d="m336 130c-22.09 0-39.99-17.9-40-39.99 0 22.09-17.91 39.99-40 39.99-27.101 0-84.039 0-100 0 0 0 .03 104.57.09 106h199.91v-106z" fill="#fce8d0"/><path d="m246.18 335.53c-50.788-4.846-88.09-49.304-90.09-99.53h47.21c14.55 0 28.55-5.32 39.44-14.97 3.53-3.13 8.17-5.03 13.26-5.03s9.73 1.9 13.26 5.03c10.88 9.64 24.9 14.97 39.44 14.97h47.3c0 58.349-50.057 105.235-109.82 99.53z" fill="#eefaff"/><path d="m344.03 381.34c-27.35-3.04-48.03-26.15-48.03-53.66l-79.92-.18-.08.18c0 27.51-20.68 50.62-48.03 53.66l-4.64.52 92.67 74.14 92.67-74.14z" fill="#fce8d0"/></g><g><path d="m376 466c5.523 0 10-4.478 10-10s-4.477-10-10-10h-40c-5.523 0-10 4.478-10 10s4.477 10 10 10z"/><path d="m216 200c5.523 0 10-4.478 10-10v-20c0-5.522-4.477-10-10-10s-10 4.478-10 10v20c0 5.522 4.477 10 10 10z"/><path d="m296 200c5.523 0 10-4.478 10-10v-20c0-5.522-4.477-10-10-10s-10 4.478-10 10v20c0 5.522 4.477 10 10 10z"/><circle cx="336" cy="502" r="10"/><path d="m445.969 384.982c-.33-18.905-9.769-36.543-24.929-47.51 3.266-6.692 4.96-13.963 4.96-21.472 0-15.637-7.537-30.402-20-39.792v-135.468c0-77.604-63.136-140.74-140.74-140.74h-18.52c-77.604 0-140.74 63.136-140.74 140.74v135.468c-12.463 9.39-20 24.155-20 39.792 0 7.509 1.694 14.78 4.96 21.472-15.16 10.968-24.599 28.605-24.929 47.51-23.928 9.631-40.031 32.978-40.031 59.338v57.68c0 5.522 4.477 10 10 10h255c5.523 0 10-4.478 10-10s-4.477-10-10-10h-25v-31.194l85.689-68.555c79.713 9.001 75.923 8.093 81.311 9.471.04.011.077.026.117.037 19.361 5.026 32.883 22.528 32.883 42.561v47.68h-40v-36c0-5.522-4.477-10-10-10s-10 4.478-10 10v36h-25c-5.523 0-10 4.478-10 10s4.477 10 10 10h95c5.523 0 10-4.478 10-10v-57.68c0-26.36-16.103-49.707-40.031-59.338zm-343.048-31.482c9.062 8.021 20.725 12.5 33.079 12.5 5.523 0 10-4.478 10-10s-4.477-10-10-10c-17.575 0-30-14.764-30-30 0-10.684 5.619-20.331 15.03-25.807 3.077-1.791 4.97-5.083 4.97-8.644v-140.809c0-66.576 54.164-120.74 120.74-120.74h18.52c66.576 0 120.74 54.164 120.74 120.74v140.81c0 3.561 1.893 6.853 4.97 8.644 9.411 5.475 15.03 15.122 15.03 25.806 0 15.2-12.34 30-30 30-5.523 0-10 4.478-10 10s4.477 10 10 10c12.354 0 24.017-4.479 33.079-12.5 9.031 6.34 14.983 15.957 16.522 26.835-2.306-.256 15.857 1.761-80.466-8.934-20.262-2.253-35.996-17.962-38.715-37.641 36.601-18.866 59.58-56.511 59.58-97.76v-106c0-5.522-4.477-10-10-10h-20c-16.535 0-29.993-13.455-30-30-.005-5.518-4.48-9.99-10-9.99-5.523 0-10 4.478-10 10 0 16.537-13.458 29.99-30 29.99h-10.027c6.292-8.363 10.027-18.752 10.027-30 0-5.522-4.477-10-10-10s-10 4.478-10 10c0 16.542-13.458 30-30 30h-10.023c6.29-8.362 10.023-18.754 10.023-30 0-5.522-4.477-10-10-10s-10 4.478-10 10c0 16.542-13.458 30-30 30-5.523 0-10 4.478-10 10v101.7c0 41.23 22.073 81.589 59.618 101.743-2.594 19.826-18.383 35.693-38.762 37.959-24.188 2.686-55.174 6.126-80.456 8.933 1.538-10.878 7.491-20.495 16.521-26.835zm153.079 89.693-70.15-56.123c19.581-7.838 34.154-24.961 38.669-45.71 6.728 2.064 13.654 3.451 20.711 4.125 14.735 1.404 29.079-.165 42.261-4.081 4.526 20.731 19.093 37.835 38.658 45.667zm0-303.193c16.341 0 30.874-7.879 40.004-20.036 9.13 12.157 23.662 20.036 39.996 20.036h10v86h-37.3c-12.092 0-23.744-4.423-32.806-12.452-5.489-4.867-12.554-7.548-19.894-7.548s-14.405 2.681-19.892 7.546c-9.064 8.031-20.715 12.454-32.808 12.454h-37.3v-86zm-40 126h-43.743c-2.44-6.483-4.176-13.166-5.185-20h36.228c16.985 0 33.347-6.21 46.075-17.487 1.828-1.62 4.18-2.513 6.625-2.513s4.798.893 6.628 2.516c12.727 11.274 29.088 17.474 46.072 17.474h36.749c-.752 6.841-2.281 13.536-4.576 20.01h-44.873c-5.523 0-10 4.478-10 10s4.477 9.99 10 9.99l34.844.01c-18.34 27.499-50.228 42.769-83.713 39.575-26.979-2.574-50.051-17.749-64.631-39.575h33.5c5.523 0 10-4.478 10-10s-4.477-10-10-10zm-110 226v-36c0-5.522-4.477-10-10-10s-10 4.478-10 10v36h-40v-47.68c0-22.705 17.174-41.298 39.133-43.721l75.184-8.344 85.683 68.551v31.194z"/></g></g></svg>