<svg id="Capa_1" enable-background="new 0 0 512 512" height="512" viewBox="0 0 512 512" width="512" xmlns="http://www.w3.org/2000/svg"><g id="XMLID_1388_"><path id="XMLID_1390_" d="m10 186h492v296h-492z" fill="#79b2ff"/><path id="XMLID_1389_" d="m10 230h492v208h-492z" fill="#fff"/><circle id="XMLID_1557_" cx="256" cy="54" fill="#8690a6" r="24"/><g id="XMLID_150_"><path id="XMLID_732_" d="m502 176h-75.917l-146.047-146.036c-6.156-6.157-14.662-9.964-24.036-9.964s-17.88 3.807-24.036 9.964l-146.047 146.036h-75.917c-5.523 0-10 4.478-10 10v296c0 5.522 4.477 10 10 10h201c5.523 0 10-4.478 10-10s-4.477-10-10-10h-191v-24h472v24h-191c-5.523 0-10 4.478-10 10s4.477 10 10 10h201c5.523 0 10-4.478 10-10v-296c0-5.522-4.477-10-10-10zm-246-136c7.72 0 14 6.28 14 14s-6.28 14-14 14-14-6.28-14-14 6.28-14 14-14zm-31.804 26.006c4.863 12.839 17.282 21.994 31.804 21.994s26.941-9.155 31.804-21.994l109.994 109.994h-283.596zm267.804 129.994v24h-472v-24zm-472 232v-188h472v188z"/><path id="XMLID_736_" d="m429.405 284c-5.523 0-10 4.478-10 10v49.249l-37.831-54.782c-2.487-3.602-7.027-5.164-11.205-3.864-4.178 1.303-7.024 5.171-7.024 9.547v79.85c0 5.522 4.477 10 10 10s10-4.478 10-10v-47.771l35.765 51.789c2.94 4.246 7.843 6.05 12.488 4.599 4.743-1.481 7.807-5.922 7.807-11.313v-77.304c0-5.522-4.477-10-10-10z"/><path id="XMLID_737_" d="m329.371 304.365c5.523 0 10-4.478 10-10s-4.477-10-10-10h-33.401c-5.523 0-10 4.478-10 10v79.27c0 5.522 4.477 10 10 10h33.401c5.523 0 10-4.478 10-10s-4.477-10-10-10h-23.401v-19.635h20.938c5.523 0 10-4.478 10-10s-4.477-10-10-10h-20.938v-19.635z"/><path id="XMLID_740_" d="m228.871 284h-22.275c-2.658 0-5.206 1.058-7.083 2.94-1.868 1.874-2.916 4.413-2.916 7.06h-.001v80c0 5.522 4.477 10 10 10s10-4.478 10-10v-24.803c4.493-.023 9.441-.044 12.275-.044 18.207 0 33.019-14.613 33.019-32.576s-14.813-32.577-33.019-32.577zm0 45.152c-2.825 0-7.708.021-12.175.044-.023-4.627-.057-20.364-.07-25.196h12.246c7.057 0 13.019 5.759 13.019 12.576s-5.964 12.576-13.02 12.576z"/><path id="XMLID_743_" d="m122.595 284c-27.57 0-50 22.43-50 50s22.43 50 50 50 50-22.43 50-50-22.429-50-50-50zm0 80c-16.542 0-30-13.458-30-30s13.458-30 30-30 30 13.458 30 30-13.458 30-30 30z"/><path id="XMLID_744_" d="m256 472c-2.63 0-5.21 1.069-7.07 2.93-1.86 1.86-2.93 4.44-2.93 7.07s1.07 5.21 2.93 7.069c1.86 1.86 4.44 2.931 7.07 2.931s5.21-1.07 7.07-2.931c1.86-1.859 2.93-4.439 2.93-7.069s-1.07-5.21-2.93-7.07-4.44-2.93-7.07-2.93z"/></g></g></svg>