<svg id="Layer_1" enable-background="new 0 0 512.001 512.001" height="512" viewBox="0 0 512.001 512.001" width="512" xmlns="http://www.w3.org/2000/svg"><g><g clip-rule="evenodd" fill-rule="evenodd"><path d="m444.705 14.692c-55.806-11.21-171.848 42.04-238.134 42.04h-34.236c4.896 36.731 3.3 90.271 3.3 117.727h30.935c74.168 0 69.163 32.112 130.97 32.112v-30.935c27.456 0 80.996 1.596 117.727-3.3 21.674-2.889 33.975-6.506 40.599-16.049 5.826-8.393 8.204-22.043-4.285-34.532 9.407-5.431 20.363-34.335-6.387-49.779 5.882-10.188-.629-30.838-18.556-34.624-2.112-13.286-9.602-20.183-21.933-22.66z" fill="#ffdcd5"/><path d="m455.268 172.336c-36.731 4.896-90.271 3.3-117.727 3.3v30.935c0 74.168-32.112 69.163-32.112 130.97h30.935c0 27.456-1.596 80.996 3.301 117.727 2.889 21.674 6.506 33.975 16.049 40.6 8.393 5.826 22.042 8.204 34.532-4.285 5.431 9.407 34.335 20.363 49.779-6.387 10.188 5.882 30.838-.629 34.624-18.556 13.288-2.113 20.184-9.603 22.661-21.934 11.21-55.806-42.04-171.848-42.04-238.134z" fill="#bb6b57"/><path d="m305.429 337.541c-74.168 0-69.163-32.112-130.97-32.112v30.935c-27.456 0-80.996-1.596-117.727 3.301-21.674 2.889-33.975 6.505-40.6 16.049-5.826 8.393-8.204 22.042 4.285 34.532-9.407 5.431-20.363 34.335 6.387 49.779-5.882 10.188.629 30.838 18.556 34.624 2.113 13.288 9.603 20.184 21.934 22.661 55.806 11.21 171.848-42.04 238.134-42.04l34.236-.001c-4.896-36.731-3.301-90.271-3.301-117.727h-30.934z" fill="#e5ae8c"/><path d="m174.459 305.429c0-74.168 32.112-69.163 32.112-130.97h-30.935c0-27.456 1.596-80.996-3.3-117.727-2.889-21.674-6.506-33.975-16.049-40.6-8.393-5.826-22.043-8.204-34.532 4.285-5.431-9.407-34.335-20.363-49.779 6.387-10.188-5.882-30.838.629-34.624 18.556-13.288 2.113-20.184 9.603-22.661 21.934-11.21 55.806 42.04 171.848 42.04 238.134l.001 34.236c36.731-4.896 90.271-3.301 117.727-3.301z" fill="#cc9081"/></g><g><path d="m504.083 161.99c6.721-9.682 10.134-25.009.803-39.621 4.374-6.396 7.115-15.01 7.115-23.566-.001-12.202-5.289-22.927-15.062-30.864.947-6.21-.014-13.14-2.89-19.587-3.881-8.701-10.609-15.302-18.957-18.794-4.036-13.248-13.754-21.725-28.418-24.669-32.872-6.604-81.214 6.511-132.394 20.396-38.865 10.544-79.054 21.447-107.708 21.447h-25.611c-3.085-18.504-7.8-31.06-18.971-38.814-9.683-6.722-25.01-10.136-39.62-.803-6.398-4.374-15.011-7.115-23.568-7.115-12.202.001-22.927 5.289-30.865 15.062-6.21-.948-13.139.014-19.585 2.889-8.701 3.88-15.302 10.609-18.795 18.956-13.248 4.036-21.724 13.754-24.669 28.419-6.06 30.166 4.499 73.548 17.851 122.992 1.44 5.331 6.929 8.484 12.261 7.047 5.332-1.439 8.487-6.93 7.047-12.262-12.214-45.23-22.747-87.972-17.551-113.839 1.752-8.722 5.797-12.655 14.427-14.027 4.091-.65 7.357-3.757 8.213-7.81 1.427-6.759 6.478-9.926 9.361-11.212 4.316-1.925 8.621-1.824 10.479-.75 4.784 2.762 10.899 1.123 13.66-3.66 4.426-7.666 10.382-11.637 17.702-11.8 7.709-.182 13.769 3.867 14.757 5.413 1.555 2.692 4.273 4.509 7.355 4.915 3.085.402 6.179-.646 8.376-2.844 9.72-9.722 18.455-5.436 21.758-3.143 5.963 4.14 9.061 12.931 11.821 33.572.012.098.024.194.039.291 3.913 29.508 3.558 69.865 3.297 99.348-.054 6.167-.105 11.991-.105 16.9 0 5.522 4.477 10 10 10h20.612c-1.39 20.429-7.082 31.543-13.538 44.148-8.555 16.704-18.251 35.637-18.251 76.821v20.888c-2.17-.017-4.422-.037-6.721-.057-26.585-.235-61.835-.546-91.006 2.216v-23.047c0-9.771-1.062-20.866-3.247-33.917-.912-5.446-6.063-9.115-11.514-8.212-5.447.912-9.124 6.067-8.211 11.515 2 11.947 2.973 21.961 2.973 30.614v25.611c-18.504 3.085-31.059 7.8-38.813 18.971-6.722 9.682-10.135 25.009-.805 39.621-4.375 6.4-7.115 15.014-7.115 23.569 0 12.203 5.289 22.928 15.061 30.864-.947 6.21.013 13.139 2.889 19.586 3.881 8.701 10.61 15.302 18.957 18.795 4.036 13.248 13.754 21.725 28.419 24.669 32.871 6.604 81.214-6.512 132.395-20.396 38.865-10.544 79.054-21.447 107.708-21.447h25.611c3.085 18.505 7.8 31.06 18.971 38.814 9.683 6.722 25.01 10.135 39.621.803 6.396 4.374 15.01 7.115 23.566 7.115 12.202-.001 22.927-5.289 30.864-15.062 6.208.948 13.139-.015 19.586-2.889 8.701-3.881 15.302-10.609 18.795-18.957 13.246-4.036 21.725-13.755 24.669-28.419 6.604-32.872-6.512-81.214-20.396-132.394-10.544-38.866-21.447-79.055-21.447-107.71v-25.61c18.503-3.084 31.058-7.799 38.814-18.97zm-303.571 75.735c7.006-13.68 14.223-27.771 15.761-53.065 29.528 1.268 43.398 8.372 58.003 15.853 13.68 7.006 27.771 14.224 53.064 15.761-1.268 29.528-8.372 43.399-15.853 58.005-7.006 13.679-14.224 27.77-15.761 53.063-29.528-1.268-43.398-8.372-58.004-15.853-13.679-7.006-27.77-14.224-53.064-15.761 1.269-29.528 8.373-43.398 15.854-58.003zm104.916 207.544c-31.319 0-72.815 11.258-112.945 22.145-46.691 12.667-94.971 25.765-123.219 20.091-8.722-1.751-12.654-5.796-14.027-14.427-.651-4.092-3.756-7.357-7.81-8.214-6.759-1.428-9.926-6.479-11.212-9.361-1.925-4.315-1.823-8.62-.75-10.479 2.761-4.783 1.122-10.899-3.661-13.66-7.666-4.426-11.636-10.381-11.8-17.701-.172-7.714 3.868-13.769 5.414-14.757 2.692-1.555 4.508-4.272 4.914-7.355.406-3.082-.645-6.178-2.843-8.376-9.721-9.721-5.436-18.453-3.142-21.758 4.14-5.964 12.931-9.062 33.572-11.82.097-.012.194-.024.291-.039 29.509-3.914 69.868-3.559 99.352-3.298 6.166.055 11.989.105 16.897.105 5.523 0 10-4.478 10-10v-20.612c20.428 1.39 31.542 7.081 44.147 13.537 16.704 8.556 35.637 18.252 76.822 18.252h20.888c-.017 2.171-.037 4.422-.057 6.721-.234 26.586-.546 61.836 2.216 91.007h-23.047zm161.985-125.751c12.667 46.69 25.766 94.971 20.091 123.219-1.751 8.722-5.796 12.654-14.427 14.026-4.091.65-7.357 3.756-8.214 7.81-1.428 6.76-6.479 9.927-9.362 11.213-4.316 1.926-8.621 1.823-10.478.75-4.785-2.762-10.9-1.122-13.66 3.66-4.426 7.666-10.382 11.637-17.701 11.8-7.731.174-13.769-3.867-14.757-5.413-1.555-2.692-4.272-4.509-7.355-4.914-.436-.058-.871-.086-1.306-.086-2.634 0-5.183 1.041-7.07 2.929-9.719 9.72-18.452 5.436-21.758 3.143-5.964-4.141-9.062-12.931-11.82-33.572-.012-.098-.024-.194-.039-.291-3.913-29.509-3.558-69.868-3.298-99.352.055-6.166.105-11.989.105-16.897 0-5.522-4.478-10-10-10h-20.612c1.39-20.428 7.081-31.541 13.537-44.146 8.556-16.704 18.252-35.638 18.252-76.823v-20.887c2.171.017 4.422.037 6.721.057 26.587.235 61.838.546 91.007-2.216v23.046c-.001 31.318 11.257 72.814 22.144 112.944zm-13.327-157.113c-.101.012-.2.025-.3.04-29.51 3.912-69.868 3.557-99.348 3.297-6.166-.054-11.989-.105-16.897-.105-5.522 0-10 4.478-10 10v20.611c-20.428-1.39-31.542-7.081-44.147-13.537-16.704-8.556-35.637-18.252-76.822-18.252h-20.888c.017-2.171.037-4.424.057-6.724.234-26.583.545-61.834-2.216-91.003h23.046c31.319 0 72.815-11.258 112.945-22.145 46.691-12.668 94.973-25.764 123.22-20.091 8.721 1.751 12.653 5.796 14.026 14.427.65 4.092 3.757 7.358 7.811 8.214 6.759 1.428 9.926 6.478 11.212 9.361 1.925 4.315 1.823 8.62.75 10.479-2.762 4.783-1.123 10.899 3.66 13.66 7.666 4.426 11.637 10.382 11.8 17.701.173 7.715-3.867 13.769-5.413 14.757-2.692 1.555-4.509 4.272-4.914 7.355-.406 3.082.645 6.178 2.843 8.376 9.721 9.721 5.437 18.454 3.143 21.757-4.142 5.966-12.93 9.063-33.568 11.822z"/><path d="m53.998 229.198c0-5.522-4.477-10-10-10h-.008c-5.523 0-9.996 4.478-9.996 10s4.48 10 10.003 10 10.001-4.477 10.001-10z"/></g></g></svg>